<svg xmlns="http://www.w3.org/2000/svg" viewBox="0 0 900 700" font-family="'Helvetica Neue', Helvetica, Arial, sans-serif">
  <defs>
    <filter id="shadow" x="-4%" y="-4%" width="108%" height="112%">
      <feDropShadow dx="0" dy="2" stdDeviation="4" flood-color="#000" flood-opacity="0.06"/>
    </filter>
    <filter id="shadow-lg" x="-4%" y="-4%" width="108%" height="116%">
      <feDropShadow dx="0" dy="4" stdDeviation="8" flood-color="#000" flood-opacity="0.1"/>
    </filter>
  </defs>

  <rect width="900" height="700" fill="#f5f5f0"/>

  <!-- Title area -->
  <text x="48" y="46" font-size="30" font-weight="700" fill="#1a1a2e" letter-spacing="-0.5">StrategyU Skills</text>
  <text x="48" y="68" font-size="13" fill="#888">Six tools for thinking, writing, and communicating like a strategy consultant</text>

  <!--
    CARD TEMPLATE (relative to card-top CT):
    Outer rect:   CT, h=140, rx=10
    Header rect:  CT, h=62, rx=10
    Bridge rect:  CT+38, h=24
    Title:        CT+30
    Command:      CT+30, right-aligned
    Subtitle:     CT+50
    Body line 1:  CT+84
    Body line 2:  CT+100
    Tag pills:    CT+114
    Card bottom:  CT+140
  -->

  <!-- ═══ ROW 1: THINK ═══ -->
  <text x="48" y="106" font-size="11" font-weight="700" fill="#7a7060" letter-spacing="3">THINK</text>

  <!-- Problem Framer (CT=118) -->
  <rect x="48" y="118" width="384" height="140" rx="10" fill="#fff" filter="url(#shadow)"/>
  <rect x="48" y="118" width="384" height="62" rx="10" fill="#E63946"/>
  <rect x="48" y="156" width="384" height="24" fill="#E63946"/>
  <text x="70" y="148" font-size="17" font-weight="700" fill="#fff">Problem Framer</text>
  <text x="410" y="148" font-size="9" fill="rgba(255,255,255,0.45)" font-family="'SF Mono', Consolas, monospace" text-anchor="end">/problem-framer</text>
  <text x="70" y="168" font-size="11" fill="rgba(255,255,255,0.85)">Define problems and build issue trees</text>

  <text x="70" y="202" font-size="12" fill="#555">Use SCQA to define the real problem, generate</text>
  <text x="70" y="218" font-size="12" fill="#555">hypotheses, and break them into sub-questions.</text>

  <rect x="70" y="232" width="46" height="18" rx="9" fill="#fef2f2"/>
  <text x="93" y="244" font-size="8" fill="#E63946" text-anchor="middle" font-weight="600">SCQA</text>
  <rect x="122" y="232" width="76" height="18" rx="9" fill="#fef2f2"/>
  <text x="160" y="244" font-size="8" fill="#E63946" text-anchor="middle" font-weight="600">Issue Trees</text>
  <rect x="204" y="232" width="72" height="18" rx="9" fill="#fef2f2"/>
  <text x="240" y="244" font-size="8" fill="#E63946" text-anchor="middle" font-weight="600">Hypothesis</text>

  <!-- Structure & Synthesize (CT=118) -->
  <rect x="464" y="118" width="384" height="140" rx="10" fill="#fff" filter="url(#shadow)"/>
  <rect x="464" y="118" width="384" height="62" rx="10" fill="#2A9D8F"/>
  <rect x="464" y="156" width="384" height="24" fill="#2A9D8F"/>
  <text x="486" y="148" font-size="17" font-weight="700" fill="#fff">Structure &amp; Synthesize</text>
  <text x="826" y="148" font-size="9" fill="rgba(255,255,255,0.45)" font-family="'SF Mono', Consolas, monospace" text-anchor="end">/structure-synthesize</text>
  <text x="486" y="168" font-size="11" fill="rgba(255,255,255,0.85)">Organize data into clear arguments</text>

  <text x="486" y="202" font-size="12" fill="#555">Turn raw research into a pyramid: main idea,</text>
  <text x="486" y="218" font-size="12" fill="#555">supporting insights, and evidence.</text>

  <rect x="486" y="232" width="44" height="18" rx="9" fill="#f0fdf9"/>
  <text x="508" y="244" font-size="8" fill="#2A9D8F" text-anchor="middle" font-weight="600">MECE</text>
  <rect x="536" y="232" width="58" height="18" rx="9" fill="#f0fdf9"/>
  <text x="565" y="244" font-size="8" fill="#2A9D8F" text-anchor="middle" font-weight="600">Pyramid</text>
  <rect x="600" y="232" width="110" height="18" rx="9" fill="#f0fdf9"/>
  <text x="655" y="244" font-size="8" fill="#2A9D8F" text-anchor="middle" font-weight="600">Label-Sort-Insight</text>

  <!-- Line under THINK spanning both cards -->
  <line x1="48" y1="108" x2="848" y2="108" stroke="#ddd8d0" stroke-width="1"/>

  <!-- ═══ ROW 2: COMMUNICATE ═══ -->
  <text x="48" y="296" font-size="11" font-weight="700" fill="#7a7060" letter-spacing="3">COMMUNICATE</text>

  <!-- Communicator (CT=308) -->
  <rect x="48" y="308" width="384" height="140" rx="10" fill="#fff" filter="url(#shadow)"/>
  <rect x="48" y="308" width="384" height="62" rx="10" fill="#457B9D"/>
  <rect x="48" y="346" width="384" height="24" fill="#457B9D"/>
  <text x="70" y="338" font-size="17" font-weight="700" fill="#fff">Communicator</text>
  <text x="410" y="338" font-size="9" fill="rgba(255,255,255,0.45)" font-family="'SF Mono', Consolas, monospace" text-anchor="end">/strategy-communicator</text>
  <text x="70" y="358" font-size="11" fill="rgba(255,255,255,0.85)">Build memos, emails, and exec summaries</text>

  <text x="70" y="392" font-size="12" fill="#555">Present arguments top-down. Choose the right</text>
  <text x="70" y="408" font-size="12" fill="#555">sequencing for your audience. Make it stick.</text>

  <rect x="70" y="422" width="76" height="18" rx="9" fill="#eff6ff"/>
  <text x="108" y="434" font-size="8" fill="#457B9D" text-anchor="middle" font-weight="600">Sequencing</text>
  <rect x="152" y="422" width="84" height="18" rx="9" fill="#eff6ff"/>
  <text x="194" y="434" font-size="8" fill="#457B9D" text-anchor="middle" font-weight="600">Memorability</text>
  <rect x="242" y="422" width="96" height="18" rx="9" fill="#eff6ff"/>
  <text x="290" y="434" font-size="8" fill="#457B9D" text-anchor="middle" font-weight="600">Ten-Second Test</text>

  <!-- Strategy Slides (CT=308) -->
  <rect x="464" y="308" width="384" height="140" rx="10" fill="#fff" filter="url(#shadow)"/>
  <rect x="464" y="308" width="384" height="62" rx="10" fill="#264653"/>
  <rect x="464" y="346" width="384" height="24" fill="#264653"/>
  <text x="486" y="338" font-size="17" font-weight="700" fill="#fff">Strategy Slides</text>
  <text x="826" y="338" font-size="9" fill="rgba(255,255,255,0.45)" font-family="'SF Mono', Consolas, monospace" text-anchor="end">/strategy-slides</text>
  <text x="486" y="358" font-size="11" fill="rgba(255,255,255,0.85)">Build and critique slide decks</text>

  <text x="486" y="392" font-size="12" fill="#555">Design principles, chart rules, and actual</text>
  <text x="486" y="408" font-size="12" fill="#555">PPTX file creation with 7 built-in templates.</text>

  <rect x="486" y="422" width="40" height="18" rx="9" fill="#f0f5f7"/>
  <text x="506" y="434" font-size="8" fill="#264653" text-anchor="middle" font-weight="600">Flow</text>
  <rect x="532" y="422" width="50" height="18" rx="9" fill="#f0f5f7"/>
  <text x="557" y="434" font-size="8" fill="#264653" text-anchor="middle" font-weight="600">Charts</text>
  <rect x="588" y="422" width="72" height="18" rx="9" fill="#f0f5f7"/>
  <text x="624" y="434" font-size="8" fill="#264653" text-anchor="middle" font-weight="600">Templates</text>
  <rect x="666" y="422" width="40" height="18" rx="9" fill="#f0f5f7"/>
  <text x="686" y="434" font-size="8" fill="#264653" text-anchor="middle" font-weight="600">PPTX</text>

  <!-- Line under COMMUNICATE spanning both cards -->
  <line x1="48" y1="298" x2="848" y2="298" stroke="#ddd8d0" stroke-width="1"/>

  <!-- ═══ ROW 3: WRITE + ALL-IN-ONE ═══ -->
  <text x="48" y="486" font-size="11" font-weight="700" fill="#7a7060" letter-spacing="3">WRITE</text>
  <text x="464" y="486" font-size="11" font-weight="700" fill="#7a7060" letter-spacing="3">ALL-IN-ONE</text>

  <!-- Line under WRITE -->
  <line x1="48" y1="488" x2="432" y2="488" stroke="#ddd8d0" stroke-width="1"/>
  <!-- Line under ALL-IN-ONE -->
  <line x1="464" y1="488" x2="848" y2="488" stroke="#ddd8d0" stroke-width="1"/>

  <!-- Strategy Writing (CT=498) -->
  <rect x="48" y="498" width="384" height="140" rx="10" fill="#fff" filter="url(#shadow)"/>
  <rect x="48" y="498" width="384" height="62" rx="10" fill="#C87941"/>
  <rect x="48" y="536" width="384" height="24" fill="#C87941"/>
  <text x="70" y="528" font-size="17" font-weight="700" fill="#fff">Strategy Writing</text>
  <text x="410" y="528" font-size="9" fill="rgba(255,255,255,0.45)" font-family="'SF Mono', Consolas, monospace" text-anchor="end">/strategy-writing</text>
  <text x="70" y="548" font-size="11" fill="rgba(255,255,255,0.85)">Eliminate AI patterns from any text</text>

  <text x="70" y="582" font-size="12" fill="#555">Clean up slide text, memos, or emails. Enforce</text>
  <text x="70" y="598" font-size="12" fill="#555">specificity, word economy, and natural rhythm.</text>

  <rect x="70" y="612" width="86" height="18" rx="9" fill="#fdf6ef"/>
  <text x="113" y="624" font-size="8" fill="#C87941" text-anchor="middle" font-weight="600">24 AI Patterns</text>
  <rect x="162" y="612" width="86" height="18" rx="9" fill="#fdf6ef"/>
  <text x="205" y="624" font-size="8" fill="#C87941" text-anchor="middle" font-weight="600">Banned Vocab</text>
  <rect x="254" y="612" width="68" height="18" rx="9" fill="#fdf6ef"/>
  <text x="288" y="624" font-size="8" fill="#C87941" text-anchor="middle" font-weight="600">Specificity</text>

  <!-- Strategy Coach (CT=498) — featured -->
  <rect x="464" y="498" width="384" height="140" rx="10" fill="#fff" filter="url(#shadow-lg)"/>
  <rect x="464" y="498" width="384" height="62" rx="10" fill="#1A1A2E"/>
  <rect x="464" y="536" width="384" height="24" fill="#1A1A2E"/>
  <text x="486" y="528" font-size="17" font-weight="700" fill="#fff">Strategy Coach</text>
  <text x="826" y="528" font-size="9" fill="rgba(255,255,255,0.45)" font-family="'SF Mono', Consolas, monospace" text-anchor="end">/strategy-coach</text>
  <text x="486" y="548" font-size="11" fill="rgba(255,255,255,0.85)">Everything above in one guided process</text>

  <text x="486" y="582" font-size="12" fill="#555">End-to-end: define the problem, structure your</text>
  <text x="486" y="598" font-size="12" fill="#555">thinking, build the argument, write the deck.</text>

  <rect x="486" y="612" width="44" height="18" rx="9" fill="#eeedf5"/>
  <text x="508" y="624" font-size="8" fill="#1A1A2E" text-anchor="middle" font-weight="600">SCQA</text>
  <rect x="536" y="612" width="44" height="18" rx="9" fill="#eeedf5"/>
  <text x="558" y="624" font-size="8" fill="#1A1A2E" text-anchor="middle" font-weight="600">MECE</text>
  <rect x="586" y="612" width="58" height="18" rx="9" fill="#eeedf5"/>
  <text x="615" y="624" font-size="8" fill="#1A1A2E" text-anchor="middle" font-weight="600">Pyramid</text>
  <rect x="650" y="612" width="52" height="18" rx="9" fill="#eeedf5"/>
  <text x="676" y="624" font-size="8" fill="#1A1A2E" text-anchor="middle" font-weight="600">Writing</text>

  <!-- Footer -->
  <rect x="48" y="656" width="800" height="32" rx="8" fill="#eceae4"/>
  <text x="70" y="676" font-size="11" fill="#666" font-weight="600">Not sure where to start?</text>
  <text x="232" y="676" font-size="11" fill="#999">Use </text>
  <text x="253" y="676" font-size="11" fill="#888" font-family="'SF Mono', Consolas, monospace">/strategy-coach</text>
  <text x="372" y="676" font-size="11" fill="#999"> for guided help, or pick a specific skill above.</text>

</svg>
